<svg width="15" height="16" viewBox="0 0 15 16" fill="none" xmlns="http://www.w3.org/2000/svg">
<path d="M14.2013 2.15129L14.2011 2.15183L10.4958 14.5084C10.4371 14.6961 10.3768 14.8207 10.3247 14.8981C10.2976 14.9384 10.2768 14.96 10.2646 14.9708C10.2356 14.9604 10.1776 14.9304 10.0922 14.8548L7.30543 11.4693L6.96388 11.0544L6.57464 11.4249L5.13869 12.792L5.66452 9.93501L12.3243 3.97381C12.3248 3.97338 12.3253 3.97295 12.3258 3.97251C12.4425 3.8691 12.5728 3.71101 12.606 3.49798C12.646 3.24215 12.5285 3.00494 12.3204 2.87615C12.1431 2.76636 11.9466 2.76 11.7982 2.78332C11.6426 2.80775 11.4893 2.87108 11.3472 2.96282L3.53451 7.75911L0.800815 6.23984L0.800442 6.23963C0.697191 6.18237 0.649909 6.1321 0.631579 6.10627C0.639575 6.09511 0.653733 6.07849 0.678122 6.05718C0.739072 6.00393 0.849261 5.93555 1.02953 5.87233C1.02997 5.87218 1.0304 5.87202 1.03084 5.87187L14.1185 1.38135C14.194 1.35671 14.2288 1.3652 14.2327 1.36633C14.2331 1.36646 14.2334 1.36656 14.2336 1.36664L14.2339 1.3669L14.2358 1.36889C14.2375 1.37081 14.2404 1.37439 14.244 1.3803C14.2789 1.43685 14.3487 1.66153 14.2013 2.15129ZM11.671 3.2158C11.6711 3.21581 11.6701 3.21705 11.6675 3.21949C11.6696 3.21701 11.6709 3.21579 11.671 3.2158Z" fill="white" stroke="white"/>
</svg>
