<svg width="15" height="16" viewBox="0 0 15 16" fill="none" xmlns="http://www.w3.org/2000/svg">
<path d="M6.35219 9.60001L2.35608 14.6531H1.32595L6.06032 8.66602L6.28972 8.37592L6.07947 8.07165L0.953257 0.653076H4.48175L7.60847 5.22735L7.99185 5.78822L8.41337 5.25542L12.0545 0.653076H13.0806L8.69537 6.19616L8.46703 6.4848L8.67476 6.78861L14.0524 14.6531H10.6339L7.15555 9.62568L6.77121 9.07017L6.35219 9.60001ZM10.5931 13.9157L10.7422 14.1313H11.0044H12.2787H13.2262L12.6915 13.3491L4.46403 1.31318L4.31512 1.09534H4.05125H2.6825H1.72891L2.27123 1.8797L10.5931 13.9157Z" fill="white" stroke="white"/>
</svg>
